<svg width="240" height="70" viewBox="0 0 240 70" fill="none" xmlns="http://www.w3.org/2000/svg">
<path d="M44.016 55.664C40.128 50.912 35.28 47.168 30.864 47.168C29.136 47.168 27.648 47.792 27.648 49.088C27.648 50.72 29.136 51.2 30.864 51.2C34.8 51.2 36.336 45.344 36.336 37.52C36.336 32.912 34.272 29.648 30.768 29.648C25.536 29.648 19.68 35.84 15.84 40.784V32.192C19.68 28.352 25.968 23.024 32.064 23.024C39.12 23.024 43.488 28.64 43.488 37.856C43.488 49.28 40.992 57.728 31.344 57.728C25.536 57.728 21.312 55.136 21.312 49.376C21.312 44.864 25.152 41.408 31.488 41.408C37.488 41.408 42.864 44.288 47.76 49.664L44.016 55.664ZM13.152 31.328C10.656 31.568 6.48 32.144 3.504 32.528L2.784 25.136C4.32 25.184 5.52 25.184 7.536 25.088C10.8 24.896 17.088 23.936 19.2 23.216L21.408 26.144C20.592 27.2 19.008 29.696 18.192 30.896L14.64 41.312C12.576 44.192 8.448 50.624 6.144 53.696L1.632 47.312C4.704 43.52 10.08 36.608 12.768 32.528L12.816 31.952L13.152 31.328ZM12.528 21.344C12.528 19.808 12.576 18.272 12.288 16.64L20.688 16.88C19.776 21.104 18.144 33.056 18.144 41.696C18.144 45.344 18.144 50.048 18.48 54.656C18.528 55.52 18.72 57.584 18.864 58.784H10.896C10.992 57.536 11.04 55.568 11.04 54.8C11.136 50.144 11.184 46.496 11.376 40.064C11.52 35.744 12.528 23.312 12.528 21.344Z" fill="#0EA5E9"/>
<path d="M57.984 20.432C61.584 20.816 66.096 21.008 71.28 21.008C76.08 21.008 81.936 20.72 85.728 20.336V28.112C82.32 28.4 75.984 28.688 71.328 28.688C66.192 28.688 61.968 28.448 57.984 28.16V20.432ZM63.216 41.312C62.832 42.944 62.496 44.336 62.496 45.872C62.496 48.56 64.992 50.624 71.472 50.624C77.856 50.624 83.952 49.904 88.56 48.704L88.608 56.96C84 57.968 78.432 58.544 71.76 58.544C60.096 58.544 54.624 54.608 54.624 47.696C54.624 44.768 55.248 42.368 55.584 40.64L63.216 41.312Z" fill="#FB923C"/>
<path d="M130.992 19.376C131.904 25.52 133.872 32.816 141.312 39.824L136.656 46.544C131.424 40.64 127.296 32.192 123.696 21.392L130.992 19.376ZM98.496 21.68C99.408 21.728 100.368 21.728 101.28 21.68C105.984 21.44 113.952 20.48 117.264 19.28L119.472 25.712C118.752 26 117.888 26.384 117.12 26.864C113.712 29.456 107.712 36.32 107.712 45.152C107.712 50.096 110.928 52.304 115.344 52.304C125.952 52.304 128.784 40.496 124.176 22.448L130.992 33.152C133.776 45.632 131.712 60.176 115.2 60.176C107.376 60.176 100.224 55.952 100.224 46.832C100.224 39.68 102.624 34.448 107.232 28.208C105.744 28.256 103.2 28.544 101.952 28.688C100.896 28.832 100.176 28.928 99.024 29.168L98.496 21.68ZM135.552 20.912C135.552 22.208 136.608 23.264 137.904 23.264C139.2 23.264 140.256 22.208 140.256 20.912C140.256 19.616 139.2 18.56 137.904 18.56C136.608 18.56 135.552 19.616 135.552 20.912ZM132.192 20.912C132.192 17.744 134.736 15.2 137.904 15.2C141.072 15.2 143.616 17.744 143.616 20.912C143.616 24.08 141.072 26.624 137.904 26.624C134.736 26.624 132.192 24.08 132.192 20.912ZM148.128 32.96C150.048 33.104 154.08 33.296 156.432 33.296C163.296 33.296 177.216 33.296 181.92 33.296C184.08 33.296 186.432 33.056 187.824 32.96V42.128C186.576 42.08 183.888 41.84 181.92 41.84C177.168 41.84 163.248 41.84 156.432 41.84C153.696 41.84 150.096 41.984 148.128 42.128V32.96ZM224.064 16.928C223.92 17.84 223.728 20.816 223.68 21.68C223.536 24.848 223.632 34.928 223.68 38.768L216.384 36.656C216.384 33.2 216.384 24.176 216.192 21.728C216 19.424 215.808 17.648 215.664 16.928H224.064ZM195.984 22.496C203.52 22.544 216.528 22.208 221.76 22.208C226.128 22.208 234.192 22.112 237.072 22.16L236.976 29.024C233.808 28.88 228.624 28.736 221.52 28.736C212.544 28.736 203.424 29.12 196.176 29.456L195.984 22.496ZM222.432 36.848C222.432 45.488 219.648 49.76 213.456 49.76C209.952 49.76 204.96 46.736 204.96 40.544C204.96 34.736 209.616 31.184 215.184 31.184C221.904 31.184 225.504 36.176 225.504 42.368C225.504 48.512 221.52 56.864 209.52 60.128L203.328 53.936C211.152 52.352 218.304 49.712 218.304 41.024C218.304 38.576 216.864 37.28 214.992 37.28C213.504 37.28 211.92 38.192 211.92 40.4C211.92 42.128 213.456 43.328 214.992 43.328C216.864 43.328 218.88 41.696 216.912 35.696L222.432 36.848Z" fill="black"/>
<path d="M160.5 12.125C159.8 12.125 159.208 11.8833 158.725 11.4C158.242 10.9167 158 10.325 158 9.625C158 8.925 158.242 8.33333 158.725 7.85C159.208 7.36667 159.8 7.125 160.5 7.125C161.2 7.125 161.792 7.36667 162.275 7.85C162.758 8.33333 163 8.925 163 9.625C163 10.325 162.758 10.9167 162.275 11.4C161.792 11.8833 161.2 12.125 160.5 12.125ZM165 8.125C164.3 8.125 163.708 7.88333 163.225 7.4C162.742 6.91667 162.5 6.325 162.5 5.625C162.5 4.925 162.742 4.33333 163.225 3.85C163.708 3.36667 164.3 3.125 165 3.125C165.7 3.125 166.292 3.36667 166.775 3.85C167.258 4.33333 167.5 4.925 167.5 5.625C167.5 6.325 167.258 6.91667 166.775 7.4C166.292 7.88333 165.7 8.125 165 8.125ZM171 8.125C170.3 8.125 169.708 7.88333 169.225 7.4C168.742 6.91667 168.5 6.325 168.5 5.625C168.5 4.925 168.742 4.33333 169.225 3.85C169.708 3.36667 170.3 3.125 171 3.125C171.7 3.125 172.292 3.36667 172.775 3.85C173.258 4.33333 173.5 4.925 173.5 5.625C173.5 6.325 173.258 6.91667 172.775 7.4C172.292 7.88333 171.7 8.125 171 8.125ZM175.5 12.125C174.8 12.125 174.208 11.8833 173.725 11.4C173.242 10.9167 173 10.325 173 9.625C173 8.925 173.242 8.33333 173.725 7.85C174.208 7.36667 174.8 7.125 175.5 7.125C176.2 7.125 176.792 7.36667 177.275 7.85C177.758 8.33333 178 8.925 178 9.625C178 10.325 177.758 10.9167 177.275 11.4C176.792 11.8833 176.2 12.125 175.5 12.125ZM162.65 22.125C161.9 22.125 161.271 21.8375 160.763 21.2625C160.254 20.6875 160 20.0083 160 19.225C160 18.3583 160.296 17.6 160.888 16.95C161.479 16.3 162.067 15.6583 162.65 15.025C163.133 14.5083 163.55 13.9458 163.9 13.3375C164.25 12.7292 164.667 12.1583 165.15 11.625C165.517 11.1917 165.942 10.8333 166.425 10.55C166.908 10.2667 167.433 10.125 168 10.125C168.567 10.125 169.092 10.2583 169.575 10.525C170.058 10.7917 170.483 11.1417 170.85 11.575C171.317 12.1083 171.729 12.6833 172.088 13.3C172.446 13.9167 172.867 14.4917 173.35 15.025C173.933 15.6583 174.521 16.3 175.113 16.95C175.704 17.6 176 18.3583 176 19.225C176 20.0083 175.746 20.6875 175.238 21.2625C174.729 21.8375 174.1 22.125 173.35 22.125C172.45 22.125 171.558 22.05 170.675 21.9C169.792 21.75 168.9 21.675 168 21.675C167.1 21.675 166.208 21.75 165.325 21.9C164.442 22.05 163.55 22.125 162.65 22.125Z" fill="black"/>
</svg>
