<svg width="237" height="46" viewBox="0 0 237 46" fill="none" xmlns="http://www.w3.org/2000/svg">
<path d="M43.016 40.664C39.128 35.912 34.28 32.168 29.864 32.168C28.136 32.168 26.648 32.792 26.648 34.088C26.648 35.72 28.136 36.2 29.864 36.2C33.8 36.2 35.336 30.344 35.336 22.52C35.336 17.912 33.272 14.648 29.768 14.648C24.536 14.648 18.68 20.84 14.84 25.784V17.192C18.68 13.352 24.968 8.024 31.064 8.024C38.12 8.024 42.488 13.64 42.488 22.856C42.488 34.28 39.992 42.728 30.344 42.728C24.536 42.728 20.312 40.136 20.312 34.376C20.312 29.864 24.152 26.408 30.488 26.408C36.488 26.408 41.864 29.288 46.76 34.664L43.016 40.664ZM12.152 16.328C9.656 16.568 5.48 17.144 2.504 17.528L1.784 10.136C3.32 10.184 4.52 10.184 6.536 10.088C9.8 9.896 16.088 8.936 18.2 8.216L20.408 11.144C19.592 12.2 18.008 14.696 17.192 15.896L13.64 26.312C11.576 29.192 7.448 35.624 5.144 38.696L0.632 32.312C3.704 28.52 9.08 21.608 11.768 17.528L11.816 16.952L12.152 16.328ZM11.528 6.344C11.528 4.808 11.576 3.272 11.288 1.64L19.688 1.88C18.776 6.104 17.144 18.056 17.144 26.696C17.144 30.344 17.144 35.048 17.48 39.656C17.528 40.52 17.72 42.584 17.864 43.784H9.896C9.992 42.536 10.04 40.568 10.04 39.8C10.136 35.144 10.184 31.496 10.376 25.064C10.52 20.744 11.528 8.312 11.528 6.344ZM56.984 5.432C60.584 5.816 65.096 6.008 70.28 6.008C75.08 6.008 80.936 5.72 84.728 5.336V13.112C81.32 13.4 74.984 13.688 70.328 13.688C65.192 13.688 60.968 13.448 56.984 13.16V5.432ZM62.216 26.312C61.832 27.944 61.496 29.336 61.496 30.872C61.496 33.56 63.992 35.624 70.472 35.624C76.856 35.624 82.952 34.904 87.56 33.704L87.608 41.96C83 42.968 77.432 43.544 70.76 43.544C59.096 43.544 53.624 39.608 53.624 32.696C53.624 29.768 54.248 27.368 54.584 25.64L62.216 26.312Z" fill="black"/>
<path d="M129.992 4.376C130.904 10.52 132.872 17.816 140.312 24.824L135.656 31.544C130.424 25.64 126.296 17.192 122.696 6.392L129.992 4.376ZM97.496 6.68C98.408 6.728 99.368 6.728 100.28 6.68C104.984 6.44 112.952 5.48 116.264 4.28L118.472 10.712C117.752 11 116.888 11.384 116.12 11.864C112.712 14.456 106.712 21.32 106.712 30.152C106.712 35.096 109.928 37.304 114.344 37.304C124.952 37.304 127.784 25.496 123.176 7.448L129.992 18.152C132.776 30.632 130.712 45.176 114.2 45.176C106.376 45.176 99.224 40.952 99.224 31.832C99.224 24.68 101.624 19.448 106.232 13.208C104.744 13.256 102.2 13.544 100.952 13.688C99.896 13.832 99.176 13.928 98.024 14.168L97.496 6.68ZM134.552 5.912C134.552 7.208 135.608 8.264 136.904 8.264C138.2 8.264 139.256 7.208 139.256 5.912C139.256 4.616 138.2 3.56 136.904 3.56C135.608 3.56 134.552 4.616 134.552 5.912ZM131.192 5.912C131.192 2.744 133.736 0.199999 136.904 0.199999C140.072 0.199999 142.616 2.744 142.616 5.912C142.616 9.08 140.072 11.624 136.904 11.624C133.736 11.624 131.192 9.08 131.192 5.912ZM147.128 17.96C149.048 18.104 153.08 18.296 155.432 18.296C162.296 18.296 176.216 18.296 180.92 18.296C183.08 18.296 185.432 18.056 186.824 17.96V27.128C185.576 27.08 182.888 26.84 180.92 26.84C176.168 26.84 162.248 26.84 155.432 26.84C152.696 26.84 149.096 26.984 147.128 27.128V17.96ZM223.064 1.928C222.92 2.84 222.728 5.816 222.68 6.68C222.536 9.848 222.632 19.928 222.68 23.768L215.384 21.656C215.384 18.2 215.384 9.176 215.192 6.728C215 4.424 214.808 2.648 214.664 1.928H223.064ZM194.984 7.496C202.52 7.544 215.528 7.208 220.76 7.208C225.128 7.208 233.192 7.112 236.072 7.16L235.976 14.024C232.808 13.88 227.624 13.736 220.52 13.736C211.544 13.736 202.424 14.12 195.176 14.456L194.984 7.496ZM221.432 21.848C221.432 30.488 218.648 34.76 212.456 34.76C208.952 34.76 203.96 31.736 203.96 25.544C203.96 19.736 208.616 16.184 214.184 16.184C220.904 16.184 224.504 21.176 224.504 27.368C224.504 33.512 220.52 41.864 208.52 45.128L202.328 38.936C210.152 37.352 217.304 34.712 217.304 26.024C217.304 23.576 215.864 22.28 213.992 22.28C212.504 22.28 210.92 23.192 210.92 25.4C210.92 27.128 212.456 28.328 213.992 28.328C215.864 28.328 217.88 26.696 215.912 20.696L221.432 21.848Z" fill="#6699CC"/>
</svg>
